<svg width="54" height="54" viewBox="0 0 54 54" fill="none" xmlns="http://www.w3.org/2000/svg">
<g clip-path="url(#clip0_72_18)">
<path d="M37.7119 0.333496H16.1919C11.987 0.338438 7.95575 2.01121 4.98266 4.98479C2.00958 7.95838 0.337486 11.9899 0.333252 16.1948L0.333252 37.7148C0.338193 41.9198 2.01097 45.951 4.98455 48.9241C7.95813 51.8972 11.9897 53.5693 16.1946 53.5735H37.7146C41.9195 53.5686 45.9508 51.8958 48.9238 48.9222C51.8969 45.9486 53.569 41.9171 53.5733 37.7122V16.1922C53.5683 11.9872 51.8955 7.95599 48.922 4.98291C45.9484 2.00982 41.9168 0.337731 37.7119 0.333496ZM48.2186 37.7122C48.2186 39.0919 47.9468 40.4582 47.4188 41.7329C46.8908 43.0076 46.1169 44.1659 45.1413 45.1415C44.1656 46.1171 43.0074 46.891 41.7326 47.4191C40.4579 47.9471 39.0917 48.2188 37.7119 48.2188H16.1919C13.4058 48.2181 10.7341 47.1109 8.76431 45.1406C6.7945 43.1702 5.68792 40.4982 5.68792 37.7122V16.1922C5.68863 13.4061 6.79589 10.7344 8.76619 8.76455C10.7365 6.79475 13.4085 5.68816 16.1946 5.68816H37.7146C40.5007 5.68887 43.1724 6.79613 45.1422 8.76644C47.112 10.7367 48.2186 13.4088 48.2186 16.1948V37.7122Z" fill="black"/>
<path d="M26.9519 13.1841C23.3023 13.1897 19.8039 14.6422 17.2236 17.223C14.6432 19.8039 13.1915 23.3026 13.1865 26.9521C13.1908 30.6025 14.6426 34.1023 17.2236 36.6838C19.8046 39.2653 23.3041 40.7178 26.9545 40.7227C30.6054 40.7185 34.1056 39.2663 36.6872 36.6847C39.2688 34.1032 40.721 30.603 40.7252 26.9521C40.7195 23.3016 39.2664 19.8024 36.6844 17.2219C34.1023 14.6414 30.6023 13.1903 26.9519 13.1867V13.1841ZM26.9519 35.3681C24.7205 35.3681 22.5805 34.4817 21.0027 32.9039C19.4249 31.3261 18.5385 29.1861 18.5385 26.9547C18.5385 24.7234 19.4249 22.5834 21.0027 21.0056C22.5805 19.4278 24.7205 18.5414 26.9519 18.5414C29.1832 18.5414 31.3232 19.4278 32.901 21.0056C34.4788 22.5834 35.3652 24.7234 35.3652 26.9547C35.3652 29.1861 34.4788 31.3261 32.901 32.9039C31.3232 34.4817 29.1832 35.3681 26.9519 35.3681Z" fill="black"/>
<path d="M40.7494 16.5866C42.5712 16.5866 44.048 15.1097 44.048 13.2879C44.048 11.4661 42.5712 9.98926 40.7494 9.98926C38.9275 9.98926 37.4507 11.4661 37.4507 13.2879C37.4507 15.1097 38.9275 16.5866 40.7494 16.5866Z" fill="black"/>
</g>
<defs>
<clipPath id="clip0_72_18">
<rect width="54" height="54" fill="white"/>
</clipPath>
</defs>
</svg>
