<svg width="64" height="64" viewBox="0 0 64 64" fill="none" xmlns="http://www.w3.org/2000/svg">
<path d="M59.8934 15.9998C57.84 16.9332 55.6267 17.5465 53.3334 17.8398C55.68 16.4265 57.4934 14.1865 58.3467 11.4932C56.1334 12.8265 53.68 13.7598 51.0934 14.2932C48.9867 11.9998 46.0267 10.6665 42.6667 10.6665C36.4 10.6665 31.28 15.7865 31.28 22.1065C31.28 23.0132 31.3867 23.8932 31.5734 24.7198C22.08 24.2398 13.6267 19.6798 8.00002 12.7732C7.01336 14.4532 6.45336 16.4265 6.45336 18.5065C6.45336 22.4798 8.45336 25.9998 11.5467 27.9998C9.65336 27.9998 7.89336 27.4665 6.34669 26.6665V26.7465C6.34669 32.2932 10.2934 36.9332 15.52 37.9732C13.842 38.4324 12.0803 38.4963 10.3734 38.1598C11.0976 40.4331 12.5161 42.4223 14.4294 43.8476C16.3427 45.273 18.6545 46.063 21.04 46.1065C16.9964 49.3077 11.984 51.038 6.82669 51.0132C5.92002 51.0132 5.01336 50.9598 4.10669 50.8532C9.17336 54.1065 15.2 55.9998 21.6534 55.9998C42.6667 55.9998 54.2134 38.5598 54.2134 23.4398C54.2134 22.9332 54.2134 22.4532 54.1867 21.9465C56.4267 20.3465 58.3467 18.3198 59.8934 15.9998Z" fill="black"/>
</svg>
