<svg 
 xmlns="http://www.w3.org/2000/svg"
 xmlns:xlink="http://www.w3.org/1999/xlink"
 width="19.375in" height="18.667in">
<defs>
<filter id="Filter_0">
    <feFlood flood-color="rgb(23, 94, 173)" flood-opacity="1" result="floodOut" />
    <feComposite operator="atop" in="floodOut" in2="SourceGraphic" result="compOut" />
    <feBlend mode="normal" in="compOut" in2="SourceGraphic" />
</filter>
<linearGradient id="PSgrad_0" x1="100%" x2="0%" y1="0%" y2="0%">
  <stop offset="26%" stop-color="rgb(94,152,45)" stop-opacity="1" />
  <stop offset="100%" stop-color="rgb(163,209,29)" stop-opacity="1" />
</linearGradient>
<linearGradient id="PSgrad_1" x1="0%" x2="55.919%" y1="0%" y2="82.904%">
  <stop offset="0%" stop-color="rgb(178,3,75)" stop-opacity="1" />
  <stop offset="48%" stop-color="rgb(245,115,21)" stop-opacity="1" />
  <stop offset="100%" stop-color="rgb(252,241,0)" stop-opacity="1" />
</linearGradient>
<linearGradient id="PSgrad_2" x1="52.992%" x2="0%" y1="0%" y2="84.805%">
  <stop offset="0%" stop-color="rgb(250,29,143)" stop-opacity="1" />
  <stop offset="22%" stop-color="rgb(201,39,154)" stop-opacity="1" />
  <stop offset="70%" stop-color="rgb(23,94,173)" stop-opacity="1" />
</linearGradient>

</defs>
<g filter="url(#Filter_0)">
<path fill-rule="evenodd"  fill="none"
 d="M165.563,1289.499 C180.647,1289.499 192.875,1301.700 192.875,1316.750 C192.875,1331.799 180.647,1344.000 165.563,1344.000 C150.478,1344.000 138.250,1331.799 138.250,1316.750 C138.250,1301.700 150.478,1289.499 165.563,1289.499 Z"/>
</g>
<path fill-rule="evenodd"  fill="rgb(215, 215, 215)"
 d="M902.954,743.916 L1066.821,743.916 C1066.821,743.916 1185.169,746.190 1176.065,634.810 L1312.804,725.211 C1312.804,725.211 1267.103,956.265 1094.132,960.811 L875.643,962.127 L875.643,743.916 L902.954,743.916 Z"/>
<path fill="url(#PSgrad_0)"
 d="M902.954,743.916 L1066.821,743.916 C1066.821,743.916 1185.169,746.190 1176.065,634.810 L1312.804,725.211 C1312.804,725.211 1267.103,956.265 1094.132,960.811 L875.643,962.127 L875.643,743.916 L902.954,743.916 Z"/>
<path fill-rule="evenodd"  fill="rgb(215, 215, 215)"
 d="M868.448,217.014 C868.448,217.014 912.058,232.483 984.888,362.045 L1148.754,634.810 C1148.754,634.810 1267.103,818.926 1066.821,962.127 C1066.821,962.127 1378.623,968.947 1394.554,689.362 C1394.554,689.362 1407.648,595.371 1289.300,415.801 L1148.113,171.110 C1148.113,171.110 989.439,23.363 848.332,143.832 C848.332,143.832 822.929,173.827 868.448,217.014 Z"/>
<path fill="url(#PSgrad_1)"
 d="M868.448,217.014 C868.448,217.014 912.058,232.483 984.888,362.045 L1148.754,634.810 C1148.754,634.810 1267.103,818.926 1066.821,962.127 C1066.821,962.127 1378.623,968.947 1394.554,689.362 C1394.554,689.362 1407.648,595.371 1289.300,415.801 L1148.113,171.110 C1148.113,171.110 989.439,23.363 848.332,143.832 C848.332,143.832 822.929,173.827 868.448,217.014 Z"/>
<path fill-rule="evenodd"  fill="rgb(131, 147, 202)"
 d="M766.399,334.769 L220.176,1289.446 C220.176,1289.446 159.350,1288.983 220.176,1207.616 L294.007,1084.722 C300.707,1069.475 300.451,1058.567 299.647,1053.267 C295.192,1037.251 282.675,1023.025 247.487,1071.234 L165.554,1207.616 C165.554,1207.616 101.003,1219.484 165.554,1125.787 L232.398,1014.522 C232.840,1012.909 233.630,1010.902 234.846,1008.421 C235.028,1008.050 235.204,1007.683 235.377,1007.317 C248.300,979.929 237.371,963.003 237.371,963.003 L237.664,963.072 C226.215,942.743 203.806,927.391 165.554,989.405 L40.391,1199.176 C40.391,1199.176 -9.692,1237.166 1.687,1180.340 L602.532,171.110 C602.532,171.110 764.610,-92.562 1012.199,34.728 C1012.199,34.728 1083.905,60.320 1163.671,198.142 C1163.671,198.142 916.610,84.734 766.399,334.769 Z"/>
<path fill="url(#PSgrad_2)"
 d="M766.399,334.769 L220.176,1289.446 C220.176,1289.446 159.350,1288.983 220.176,1207.616 L294.007,1084.722 C300.707,1069.475 300.451,1058.567 299.647,1053.267 C295.192,1037.251 282.675,1023.025 247.487,1071.234 L165.554,1207.616 C165.554,1207.616 101.003,1219.484 165.554,1125.787 L232.398,1014.522 C232.840,1012.909 233.630,1010.902 234.846,1008.421 C235.028,1008.050 235.204,1007.683 235.377,1007.317 C248.300,979.929 237.371,963.003 237.371,963.003 L237.664,963.072 C226.215,942.743 203.806,927.391 165.554,989.405 L40.391,1199.176 C40.391,1199.176 -9.692,1237.166 1.687,1180.340 L602.532,171.110 C602.532,171.110 764.610,-92.562 1012.199,34.728 C1012.199,34.728 1083.905,60.320 1163.671,198.142 C1163.671,198.142 916.610,84.734 766.399,334.769 Z"/>
</svg>